<svg width="480" height="480" viewBox="0 0 480 480" fill="none" xmlns="http://www.w3.org/2000/svg">
<rect width="480" height="480" fill="#E5E5E5"/>
<rect width="480" height="480" fill="#220081"/>
<path d="M71.6 146.8C56.6667 141.733 45.6 134.133 38.4 124C31.2 113.867 27.6 100 27.6 82.4C27.6 57.8667 36.9333 38.2667 55.6 23.6C74.2667 8.66666 93.2 1.19999 112.4 1.19999C131.867 1.19999 148.933 5.59999 163.6 14.4C178.533 22.9333 186 34.6667 186 49.6C186 58.6667 183.2 65.6 177.6 70.4C172 75.2 165.2 77.6 157.2 77.6C149.467 77.6 143.2 75.4667 138.4 71.2C133.867 66.6667 131.6 62.5333 131.6 58.8C131.6 54.8 132.267 52.8 133.6 52.8C135.2 52.8 136.533 53.7333 137.6 55.6C138.667 57.2 139.6 59.0667 140.4 61.2C142.533 66.8 147.067 69.6 154 69.6C161.2 69.6 166.8 67.8667 170.8 64.4C175.067 60.9333 177.2 56 177.2 49.6C177.2 37.8666 170.667 28.2666 157.6 20.8C144.533 13.3333 129.733 9.59998 113.2 9.59998C96.6667 9.59998 81.2 14.6667 66.8 24.8C52.4 34.9333 45.2 47.7333 45.2 63.2C45.2 73.6 48.8 82.2667 56 89.2C63.4667 95.8667 71.7333 100.667 80.8 103.6C90.1333 106.533 102.133 110 116.8 114C131.733 118 143.333 121.867 151.6 125.6C180.4 138.4 194.8 161.467 194.8 194.8C194.8 211.6 191.6 226.4 185.2 239.2C179.067 252 171.2 261.733 161.6 268.4C142.667 281.2 123.6 287.6 104.4 287.6C86.8 287.6 68.6667 282.133 50 271.2C40.9333 265.867 33.4667 258.4 27.6 248.8C21.7333 239.2 18.8 228 18.8 215.2C18.8 202.133 22.2667 192.667 29.2 186.8C36.4 180.667 42.6667 177.6 48 177.6C53.6 177.6 58.4 178.8 62.4 181.2C66.4 183.6 68.4 186.267 68.4 189.2C68.4 192.133 67.7333 193.6 66.4 193.6C65.0667 193.6 64 193.2 63.2 192.4C62.6667 191.6 62.1333 190.667 61.6 189.6C59.7333 186.933 55.3333 185.6 48.4 185.6C41.7333 185.6 36.2667 188.533 32 194.4C28 200 26 207.2 26 216C26 235.2 34.1333 250.667 50.4 262.4C66.6667 273.867 84.1333 279.6 102.8 279.6C128.4 279.6 148.8 270.933 164 253.6C172.8 243.2 177.2 229.867 177.2 213.6C177.2 197.333 171.6 185.2 160.4 177.2C149.467 168.933 134 162.533 114 158C94 153.2 79.8667 149.467 71.6 146.8Z" fill="#52ECF5"/>
<path d="M376.94 473C356.14 473 340.14 468.2 328.94 458.6C318.007 448.733 311.207 435.8 308.54 419.8V469H268.14V197.8H237.74C225.207 197.8 215.873 200.733 209.74 206.6C203.607 212.2 200.54 218.867 200.54 226.6C200.54 234.333 202.407 240.467 206.14 245C210.14 249.533 214.94 251.8 220.54 251.8C226.14 251.8 230.673 250.333 234.14 247.4C237.607 244.467 240.273 241.533 242.14 238.6C244.007 235.667 245.607 234.2 246.94 234.2C248.273 234.2 248.94 235.933 248.94 239.4C248.94 242.6 246.007 246.733 240.14 251.8C234.54 256.867 227.607 259.4 219.34 259.4C211.073 259.4 204.54 256.333 199.74 250.2C194.94 244.067 192.54 236.467 192.54 227.4C192.54 218.067 196.407 209.667 204.14 202.2C212.14 194.467 223.473 190.6 238.14 190.6H341.74C375.607 190.6 399.607 195.4 413.74 205C426.54 214.067 432.94 227.133 432.94 244.2C432.94 261 428.673 273.667 420.14 282.2C411.873 290.733 400.94 297.667 387.34 303C405.74 303 423.34 308.733 440.14 320.2C448.94 326.067 456.007 334.6 461.34 345.8C466.673 357 469.34 370.2 469.34 385.4C469.34 400.6 466.273 414.2 460.14 426.2C454.007 438.2 446.007 447.4 436.14 453.8C417.473 466.6 397.74 473 376.94 473ZM338.54 385C331.607 385 326.14 387.933 322.14 393.8C318.14 399.667 316.14 405.8 316.14 412.2C316.14 418.6 317.74 425.667 320.94 433.4C324.14 440.867 330.14 448.067 338.94 455C347.74 461.667 358.007 465 369.74 465C381.473 465 391.34 462.333 399.34 457C407.607 451.667 413.74 444.733 417.74 436.2C425.207 420.2 428.94 401.933 428.94 381.4C428.94 360.6 423.073 344.067 411.34 331.8C399.607 319.533 387.34 313.4 374.54 313.4C361.74 313.4 339.74 322.733 308.54 341.4V407.4C309.607 397.533 313.473 390.067 320.14 385C326.807 379.667 333.34 377 339.74 377C346.407 377 352.407 378.2 357.74 380.6C363.073 383 365.74 385.4 365.74 387.8C365.74 388.867 365.207 389.933 364.14 391C363.34 391.8 362.54 392.2 361.74 392.2C361.207 392.2 358.94 391 354.94 388.6C350.94 386.2 345.473 385 338.54 385ZM308.54 331.8L357.74 305.8C381.207 293.267 392.94 273.4 392.94 246.2C392.94 224.867 387.34 211.133 376.14 205C367.073 200.2 354.273 197.8 337.74 197.8H308.54V331.8Z" fill="#F5F04C"/>
</svg>
